HIERARCHY
ROOT Model
{
	OFFSET 0 0 0
	CHANNELS 6 Xposition Yposition Zposition Zrotation Xrotation Yrotation
	JOINT Model1
	{
		OFFSET 0 -2.25479 2.99384
		CHANNELS 3 Zrotation Xrotation Yrotation
		JOINT Model2
		{
			OFFSET 12.111 0 0
			CHANNELS 3 Zrotation Xrotation Yrotation
			JOINT Model3
			{
				OFFSET 11.5502 0 0
				CHANNELS 3 Zrotation Xrotation Yrotation
				JOINT Model4
				{
					OFFSET 11.781 0 0
					CHANNELS 3 Zrotation Xrotation Yrotation
					JOINT Model5
					{
						OFFSET 20.0601 0 0
						CHANNELS 3 Zrotation Xrotation Yrotation
						JOINT Model6
						{
							OFFSET 11.1962 0 0
							CHANNELS 3 Zrotation Xrotation Yrotation
							End Site
							{
								OFFSET 0 0 0
							}
						}
					}
					JOINT Model7
					{
						OFFSET 10.8223 0.417534 3.51114
						CHANNELS 3 Zrotation Xrotation Yrotation
						JOINT Model8
						{
							OFFSET -6.07943 0 0
							CHANNELS 3 Zrotation Xrotation Yrotation
							JOINT Model9
							{
								OFFSET -0.277416 10.39 -0.051239
								CHANNELS 3 Zrotation Xrotation Yrotation
								JOINT Model10
								{
									OFFSET -3.4391 -0.282043 1.86679
									CHANNELS 3 Zrotation Xrotation Yrotation
									JOINT Model11
									{
										OFFSET 13.0269 0 0
										CHANNELS 3 Zrotation Xrotation Yrotation
										JOINT Model12
										{
											OFFSET 10.8866 0 0
											CHANNELS 3 Zrotation Xrotation Yrotation
											JOINT Model13
											{
												OFFSET 16.7317 0 0
												CHANNELS 3 Zrotation Xrotation Yrotation
												JOINT Model14
												{
													OFFSET 11.8292 0 0
													CHANNELS 3 Zrotation Xrotation Yrotation
													JOINT Model15
													{
														OFFSET 4.82751 -3.73566 -0.836517
														CHANNELS 3 Zrotation Xrotation Yrotation
														JOINT Model16
														{
															OFFSET 3.75311 -0.0582886 -0.0186462
															CHANNELS 3 Zrotation Xrotation Yrotation
															JOINT Model17
															{
																OFFSET 2.88688 0.0192337 0.014801
																CHANNELS 3 Zrotation Xrotation Yrotation
																End Site
																{
																	OFFSET 0 0 0
																}
															}
														}
													}
													JOINT Model18
													{
														OFFSET 9.72197 -3.06458 0.23877
														CHANNELS 3 Zrotation Xrotation Yrotation
														JOINT Model19
														{
															OFFSET 4.61131 0 0
															CHANNELS 3 Zrotation Xrotation Yrotation
															JOINT Model20
															{
																OFFSET 2.8969 -7.62939e-006 0
																CHANNELS 3 Zrotation Xrotation Yrotation
																End Site
																{
																	OFFSET 0 0 0
																}
															}
														}
													}
													JOINT Model21
													{
														OFFSET 9.54431 -0.745064 0.588928
														CHANNELS 3 Zrotation Xrotation Yrotation
														JOINT Model22
														{
															OFFSET 5.33978 0 0
															CHANNELS 3 Zrotation Xrotation Yrotation
															JOINT Model23
															{
																OFFSET 3.03619 7.62939e-006 0
																CHANNELS 3 Zrotation Xrotation Yrotation
																End Site
																{
																	OFFSET 0 0 0
																}
															}
														}
													}
													JOINT Model24
													{
														OFFSET 9.47759 1.51286 0.485107
														CHANNELS 3 Zrotation Xrotation Yrotation
														JOINT Model25
														{
															OFFSET 4.96136 7.62939e-006 0
															CHANNELS 3 Zrotation Xrotation Yrotation
															JOINT Model26
															{
																OFFSET 2.51966 0 0
																CHANNELS 3 Zrotation Xrotation Yrotation
																End Site
																{
																	OFFSET 0 0 0
																}
															}
														}
													}
													JOINT Model27
													{
														OFFSET 9.34247 3.34117 -0.239288
														CHANNELS 3 Zrotation Xrotation Yrotation
														JOINT Model28
														{
															OFFSET 3.2826 2.28882e-005 0
															CHANNELS 3 Zrotation Xrotation Yrotation
															JOINT Model29
															{
																OFFSET 2.1292 0 0
																CHANNELS 3 Zrotation Xrotation Yrotation
																End Site
																{
																	OFFSET 0 0 0
																}
															}
														}
													}
												}
											}
										}
									}
								}
							}
						}
					}
					JOINT Model30
					{
						OFFSET 10.8223 0.4179 -3.51108
						CHANNELS 3 Zrotation Xrotation Yrotation
						JOINT Model31
						{
							OFFSET 6.07943 0 0
							CHANNELS 3 Zrotation Xrotation Yrotation
							JOINT Model32
							{
								OFFSET 0.277416 -10.39 0.051239
								CHANNELS 3 Zrotation Xrotation Yrotation
								JOINT Model33
								{
									OFFSET 3.4391 0.282043 -1.86679
									CHANNELS 3 Zrotation Xrotation Yrotation
									JOINT Model34
									{
										OFFSET -13.0269 0 0
										CHANNELS 3 Zrotation Xrotation Yrotation
										JOINT Model35
										{
											OFFSET -10.8866 0 0
											CHANNELS 3 Zrotation Xrotation Yrotation
											JOINT Model36
											{
												OFFSET -16.7317 0 0
												CHANNELS 3 Zrotation Xrotation Yrotation
												JOINT Model37
												{
													OFFSET -11.8292 0 0
													CHANNELS 3 Zrotation Xrotation Yrotation
													JOINT Model38
													{
														OFFSET -4.82751 3.73566 0.836517
														CHANNELS 3 Zrotation Xrotation Yrotation
														JOINT Model39
														{
															OFFSET -3.75311 0.0582886 0.0186462
															CHANNELS 3 Zrotation Xrotation Yrotation
															JOINT Model40
															{
																OFFSET -2.88688 -0.0192337 -0.014801
																CHANNELS 3 Zrotation Xrotation Yrotation
																End Site
																{
																	OFFSET 0 0 0
																}
															}
														}
													}
													JOINT Model41
													{
														OFFSET -9.72197 3.06459 -0.23877
														CHANNELS 3 Zrotation Xrotation Yrotation
														JOINT Model42
														{
															OFFSET -4.6113 0 0
															CHANNELS 3 Zrotation Xrotation Yrotation
															JOINT Model43
															{
																OFFSET -2.8969 0 0
																CHANNELS 3 Zrotation Xrotation Yrotation
																End Site
																{
																	OFFSET 0 0 0
																}
															}
														}
													}
													JOINT Model44
													{
														OFFSET -9.5443 0.745064 -0.588928
														CHANNELS 3 Zrotation Xrotation Yrotation
														JOINT Model45
														{
															OFFSET -5.33978 0 0
															CHANNELS 3 Zrotation Xrotation Yrotation
															JOINT Model46
															{
																OFFSET -3.03619 -1.52588e-005 0
																CHANNELS 3 Zrotation Xrotation Yrotation
																End Site
																{
																	OFFSET 0 0 0
																}
															}
														}
													}
													JOINT Model47
													{
														OFFSET -9.47759 -1.51286 -0.485107
														CHANNELS 3 Zrotation Xrotation Yrotation
														JOINT Model48
														{
															OFFSET -4.96136 -1.52588e-005 0
															CHANNELS 3 Zrotation Xrotation Yrotation
															JOINT Model49
															{
																OFFSET -2.51966 0 0
																CHANNELS 3 Zrotation Xrotation Yrotation
																End Site
																{
																	OFFSET 0 0 0
																}
															}
														}
													}
													JOINT Model50
													{
														OFFSET -9.34246 -3.34118 0.239288
														CHANNELS 3 Zrotation Xrotation Yrotation
														JOINT Model51
														{
															OFFSET -3.2826 -2.28882e-005 0
															CHANNELS 3 Zrotation Xrotation Yrotation
															JOINT Model52
															{
																OFFSET -2.1292 0 0
																CHANNELS 3 Zrotation Xrotation Yrotation
																End Site
																{
																	OFFSET 0 0 0
																}
															}
														}
													}
												}
											}
										}
									}
								}
							}
						}
					}
				}
			}
		}
	}
	JOINT Model53
	{
		OFFSET 4.38026 -2.14632 -1.11517
		CHANNELS 3 Zrotation Xrotation Yrotation
		JOINT Model54
		{
			OFFSET 0 0 4.94998
			CHANNELS 3 Zrotation Xrotation Yrotation
			JOINT Model55
			{
				OFFSET 18.5642 0 0
				CHANNELS 3 Zrotation Xrotation Yrotation
				JOINT Model56
				{
					OFFSET 21.2884 0 0
					CHANNELS 3 Zrotation Xrotation Yrotation
					JOINT Model57
					{
						OFFSET 30.261 0 0
						CHANNELS 3 Zrotation Xrotation Yrotation
						JOINT Model58
						{
							OFFSET 11.7259 0 0
							CHANNELS 3 Zrotation Xrotation Yrotation
							JOINT Model59
							{
								OFFSET 10.682 0 0
								CHANNELS 3 Zrotation Xrotation Yrotation
								End Site
								{
									OFFSET 0 0 0
								}
							}
						}
					}
				}
			}
		}
	}
	JOINT Model60
	{
		OFFSET -4.38026 -2.14632 -1.11517
		CHANNELS 3 Zrotation Xrotation Yrotation
		JOINT Model61
		{
			OFFSET 0 0 -4.94998
			CHANNELS 3 Zrotation Xrotation Yrotation
			JOINT Model62
			{
				OFFSET -18.5642 0 0
				CHANNELS 3 Zrotation Xrotation Yrotation
				JOINT Model63
				{
					OFFSET -21.2884 0 0
					CHANNELS 3 Zrotation Xrotation Yrotation
					JOINT Model64
					{
						OFFSET -30.261 0 0
						CHANNELS 3 Zrotation Xrotation Yrotation
						JOINT Model65
						{
							OFFSET -11.7259 0 0
							CHANNELS 3 Zrotation Xrotation Yrotation
							JOINT Model66
							{
								OFFSET -10.682 0 0
								CHANNELS 3 Zrotation Xrotation Yrotation
								End Site
								{
									OFFSET 0 0 0
								}
							}
						}
					}
				}
			}
		}
	}
}
MOTION
Frames: 5
Frame Time: 0.033333
52.4404 172.025 36.969 110.041 18.7643 84.3849 -180 4.29621e-031 -90 4.57335 -2.15767 -0.738853 9.1284 -4.36771 -1.30446 9.1284 -4.36728 -1.30453 20.1579 5.10818 10.9286 -34.3719 7.28077 -3.82216 120.092 75.5343 58.4939 -24.8592 -7.96934 0.421843 -167.277 84.4999 48.8109 177.194 0.388757 -8.689 -1.46521e-006 27.6268 3.54673e-005 -89.9743 1.05564 0.609157 2.45338e-007 1.15823 1.22229e-007 -0.47965 0.0184017 -4.39399 -72.0648 39.0385 39.3397 33.3638 2.10362 14.835 0.588947 0.308273 6.35287 -99.6409 81.413 100.35 -0.018141 2.77786e-005 -0.117315 -0.124139 0.00241112 -0.799296 -79.8382 79.5773 80.5374 -0.000225827 -0.000220923 2.22135e-005 -0.000956295 0.000122894 -2.7295e-005 -66.7416 80.4058 67.2171 -0.000437183 1.59447e-005 -2.7299e-005 -0.000136672 -0.000109292 -5.46121e-005 -6.42159 81.2158 8.01779 -0.000218613 1.69046e-005 0.000212169 0.00090152 -0.000184806 -0.000218527 -59.9282 75.5373 58.5147 -21.9426 -16.9075 -4.90837 -167.277 84.4999 48.8109 -145.022 3.79038 14.8596 -5.6424e-006 19.7089 3.55974e-005 -93.664 7.25557 0.612756 -4.09888e-006 10.5151 1.65215e-006 -18.0967 0.67632 -4.24506 -72.0648 39.0385 39.3397 33.3638 2.10361 14.835 0.588946 0.308273 6.35287 -99.6409 81.413 100.35 -0.0181409 3.00734e-005 -0.117315 -0.124139 0.00241112 -0.799296 -79.8382 79.5773 80.5374 -0.000260629 -0.000218571 2.35755e-005 -0.000956203 0.00012299 -2.73138e-005 -66.7416 80.4058 67.2171 -0.000437114 1.48766e-005 -2.73165e-005 -0.00013658 -0.000109289 -5.46358e-005 -6.42159 81.2158 8.01779 -0.000218548 1.95744e-005 0.000212298 0.000901607 -0.000191251 -0.000218564 0.000811311 0.56661 89.91 32.2521 68.7741 10.9936 -180 83.7481 180 45.1895 -60.987 -0.0121798 180 -88.4353 180 -38.2434 3.23309 -2.73651 -35.4947 5.82469e-007 2.67413e-007 -180 -0.566579 -90.09 -3.734 -14.0669 -18.8614 -2.07353e-006 -5.74247 -1.31977e-007 39.757 6.03192 15.0332 5.35792e-007 9.2851 5.97377e-007 -60.5153 34.39 -22.8657 -35.4997 -0.0140593 0.000758957 
52.4604 172 36.964 110.178 18.7497 84.3704 -180 4.29621e-031 -90 4.55514 -2.11723 -0.76526 9.09111 -4.28887 -1.36113 9.0911 -4.28844 -1.3612 20.7743 5.0868 11.6601 -34.712 7.5094 -4.48267 120.092 75.5343 58.4939 -25.1281 -7.92288 0.480365 -167.277 84.4999 48.8109 177.364 0.324245 -9.21851 -1.5694e-006 27.7757 3.55157e-005 -89.9481 1.05695 0.609112 2.45334e-007 1.1598 1.22229e-007 -0.482737 0.0186266 -4.41922 -72.0648 39.0385 39.3397 33.3638 2.10362 14.835 0.588947 0.308273 6.35287 -99.6409 81.413 100.35 -0.018141 2.77786e-005 -0.117315 -0.124139 0.00241112 -0.799296 -79.8382 79.5773 80.5374 -0.000225827 -0.000220923 2.22135e-005 -0.000956295 0.000122894 -2.7295e-005 -66.7416 80.4058 67.2171 -0.000437183 1.59447e-005 -2.7299e-005 -0.000136672 -0.000109292 -5.46121e-005 -6.42159 81.2158 8.01779 -0.000218613 1.69046e-005 0.000212169 0.00090152 -0.000184806 -0.000218527 -59.9282 75.5373 58.5147 -22.6981 -17.2958 -5.12633 -167.277 84.4999 48.8109 -144.851 3.53439 14.7556 -5.43946e-006 19.4008 3.55294e-005 -93.6991 7.39842 0.613033 -4.10519e-006 10.7299 1.65331e-006 -18.2635 0.629923 -3.9174 -72.0648 39.0385 39.3397 33.3638 2.10361 14.835 0.588946 0.308273 6.35287 -99.6409 81.413 100.35 -0.0181409 3.00734e-005 -0.117315 -0.124139 0.00241112 -0.799296 -79.8382 79.5773 80.5374 -0.000260629 -0.000218571 2.35755e-005 -0.000956203 0.00012299 -2.73138e-005 -66.7416 80.4058 67.2171 -0.000437114 1.48766e-005 -2.73165e-005 -0.00013658 -0.000109289 -5.46358e-005 -6.42159 81.2158 8.01779 -0.000218548 1.95744e-005 0.000212298 0.000901607 -0.000191251 -0.000218564 0.000811311 0.56661 89.91 33.3827 68.8433 10.0506 -180 83.108 180 45.2603 -61.2385 -0.0122486 180 -88.0579 180 -38.2435 3.23913 -2.74219 -35.4947 5.79523e-007 2.62905e-007 -180 -0.566579 -90.09 -3.58291 -13.9817 -18.8254 -2.07318e-006 -5.59241 -1.31943e-007 39.7923 5.97076 15.111 5.3676e-007 9.19347 5.97222e-007 -60.7523 34.0597 -22.5521 -35.4947 4.18885e-008 3.59321e-008 
52.4841 172.005 36.952 110.219 18.7371 84.3599 -180 4.29621e-031 -90 4.52397 -2.09155 -0.782202 9.0282 -4.2386 -1.39818 9.02819 -4.23817 -1.39825 21.2865 5.05893 12.1398 -34.9706 7.6388 -4.92784 120.092 75.5343 58.4939 -25.4373 -7.94226 0.505434 -167.277 84.4999 48.8109 177.506 0.277084 -9.70862 -1.67816e-006 27.9308 3.55666e-005 -89.9953 1.0307 0.60906 2.45417e-007 1.12114 1.22228e-007 -0.472961 0.018345 -4.44234 -72.0648 39.0385 39.3397 33.3638 2.10362 14.835 0.588947 0.308273 6.35287 -99.6409 81.413 100.35 -0.018141 2.77786e-005 -0.117315 -0.124139 0.00241112 -0.799296 -79.8382 79.5773 80.5374 -0.000225827 -0.000220923 2.22135e-005 -0.000956295 0.000122894 -2.7295e-005 -66.7416 80.4058 67.2171 -0.000437183 1.59447e-005 -2.7299e-005 -0.000136672 -0.000109292 -5.46121e-005 -6.42159 81.2158 8.01779 -0.000218613 1.69046e-005 0.000212169 0.00090152 -0.000184806 -0.000218527 -59.9282 75.5373 58.5147 -23.2598 -17.5924 -5.29792 -167.277 84.4999 48.8109 -144.723 3.33404 14.6616 -5.29046e-006 19.1738 3.54802e-005 -93.7788 7.51155 0.613282 -4.11021e-006 10.9009 1.65425e-006 -18.2956 0.582525 -3.61636 -72.0648 39.0385 39.3397 33.3638 2.10361 14.835 0.588946 0.308273 6.35287 -99.6409 81.413 100.35 -0.0181409 3.00734e-005 -0.117315 -0.124139 0.00241112 -0.799296 -79.8382 79.5773 80.5374 -0.000260629 -0.000218571 2.35755e-005 -0.000956203 0.00012299 -2.73138e-005 -66.7416 80.4058 67.2171 -0.000437114 1.48766e-005 -2.73165e-005 -0.00013658 -0.000109289 -5.46358e-005 -6.42159 81.2158 8.01779 -0.000218548 1.95744e-005 0.000212298 0.000901607 -0.000191251 -0.000218564 0.000811311 0.56661 89.91 33.7951 68.8661 9.67788 -180 82.8559 180 45.2288 -61.3387 -0.012269 180 -87.9077 180 -38.2716 3.26285 -2.76445 -35.4947 5.73459e-007 2.57984e-007 -180 -0.566579 -90.09 -3.50257 -13.9588 -18.8389 -2.07301e-006 -5.51977 -1.31927e-007 39.7489 5.94715 15.1729 5.37118e-007 9.15955 5.97165e-007 -60.8651 33.8656 -22.3788 -35.4947 4.26954e-008 -4.1138e-008 
52.5091 172.035 36.94 110.137 18.7065 84.3708 -180 4.29621e-031 -90 4.47872 -2.08052 -0.78409 8.93759 -4.21622 -1.40451 8.93759 -4.21579 -1.40458 21.6563 5.01111 12.2286 -35.1418 7.60023 -5.01688 120.092 75.5343 58.4939 -25.7823 -8.048 0.483657 -167.277 84.4999 48.8109 177.589 0.257197 -10.1229 -1.78546e-006 28.0833 3.56169e-005 -90.0986 0.998841 0.609008 2.45516e-007 1.07488 1.22226e-007 -0.45199 0.0175764 -4.45369 -72.0648 39.0385 39.3397 33.3638 2.10362 14.835 0.588947 0.308273 6.35287 -99.6409 81.413 100.35 -0.018141 2.77786e-005 -0.117315 -0.124139 0.00241112 -0.799296 -79.8382 79.5773 80.5374 -0.000225827 -0.000220923 2.22135e-005 -0.000956295 0.000122894 -2.7295e-005 -66.7416 80.4058 67.2171 -0.000437183 1.59447e-005 -2.7299e-005 -0.000136672 -0.000109292 -5.46121e-005 -6.42159 81.2158 8.01779 -0.000218613 1.69046e-005 0.000212169 0.00090152 -0.000184806 -0.000218527 -59.9282 75.5373 58.5147 -23.5479 -17.7374 -5.38336 -167.277 84.4999 48.8109 -144.598 3.20538 14.5907 -5.199e-006 19.0342 3.54503e-005 -93.8534 7.64524 0.61357 -4.11615e-006 11.1026 1.65539e-006 -18.3099 0.534925 -3.31839 -72.0648 39.0385 39.3397 33.3638 2.10361 14.835 0.588946 0.308273 6.35287 -99.6409 81.413 100.35 -0.0181409 3.00734e-005 -0.117315 -0.124139 0.00241112 -0.799296 -79.8382 79.5773 80.5374 -0.000260629 -0.000218571 2.35755e-005 -0.000956203 0.00012299 -2.73138e-005 -66.7416 80.4058 67.2171 -0.000437114 1.48766e-005 -2.73165e-005 -0.00013658 -0.000109289 -5.46358e-005 -6.42159 81.2158 8.01779 -0.000218548 1.95744e-005 0.000212298 0.000901607 -0.000191251 -0.000218564 0.000811311 0.56661 89.91 33.4684 68.8397 9.88562 -180 83.0091 180 45.1028 -61.2816 -0.0122328 180 -87.9936 180 -38.3561 3.27108 -2.77191 -35.4947 5.64624e-007 2.52695e-007 -180 -0.566579 -90.09 -3.53105 -13.9836 -18.8745 -2.07305e-006 -5.53716 -1.31931e-007 39.6466 5.96107 15.1785 5.36886e-007 9.18159 5.97202e-007 -60.8211 33.8307 -22.372 -35.4947 4.04762e-008 -7.662e-008 
52.5341 172.075 36.932 109.964 18.6189 84.4159 -180 4.29621e-031 -90 4.42646 -2.07185 -0.773521 8.8334 -4.19754 -1.38599 8.8334 -4.1971 -1.38606 21.9212 4.94792 11.9506 -35.2935 7.40292 -4.75299 120.092 75.5343 58.4939 -26.1397 -8.23292 0.415433 -167.277 84.4999 48.8109 177.587 0.262335 -10.4623 -1.88338e-006 28.222 3.56631e-005 -90.1821 0.993665 0.60896 2.45529e-007 1.06836 1.22226e-007 -0.433484 0.0168368 -4.44842 -72.0648 39.0385 39.3397 33.3638 2.10362 14.835 0.588947 0.308273 6.35287 -99.6409 81.413 100.35 -0.018141 2.77786e-005 -0.117315 -0.124139 0.00241112 -0.799296 -79.8382 79.5773 80.5374 -0.000225827 -0.000220923 2.22135e-005 -0.000956295 0.000122894 -2.7295e-005 -66.7416 80.4058 67.2171 -0.000437183 1.59447e-005 -2.7299e-005 -0.000136672 -0.000109292 -5.46121e-005 -6.42159 81.2158 8.01779 -0.000218613 1.69046e-005 0.000212169 0.00090152 -0.000184806 -0.000218527 -59.9282 75.5373 58.5147 -23.5958 -17.7046 -5.36385 -167.277 84.4999 48.8109 -144.411 3.13479 14.5617 -5.13324e-006 18.9337 3.54289e-005 -93.8097 7.89343 0.614035 -4.1271e-006 11.4742 1.65753e-006 -18.544 0.496091 -3.0381 -72.0648 39.0385 39.3397 33.3638 2.10361 14.835 0.588946 0.308273 6.35287 -99.6409 81.413 100.35 -0.0181409 3.00734e-005 -0.117315 -0.124139 0.00241112 -0.799296 -79.8382 79.5773 80.5374 -0.000260629 -0.000218571 2.35755e-005 -0.000956203 0.00012299 -2.73138e-005 -66.7416 80.4058 67.2171 -0.000437114 1.48766e-005 -2.73165e-005 -0.00013658 -0.000109289 -5.46358e-005 -6.42159 81.2158 8.01779 -0.000218548 1.95744e-005 0.000212298 0.000901607 -0.000191251 -0.000218564 0.000811311 0.56661 89.91 32.7951 68.7696 10.3574 -180 83.3812 180 44.9386 -61.1643 -0.0121734 180 -88.1699 180 -38.5745 3.14316 -2.65133 -35.4947 5.53366e-007 2.47084e-007 -180 -0.566579 -90.09 -3.66799 -13.9778 -18.8634 -2.07315e-006 -5.58186 -1.31941e-007 39.5795 5.9747 15.0852 5.36703e-007 9.19887 5.97231e-007 -60.7998 33.8134 -22.3683 -35.4947 3.63851e-008 -1.07894e-007 
